<?xml version="1.0" encoding="UTF-8" standalone="no"?>
<!-- Created with Inkscape (http://www.inkscape.org/) -->

<svg
   xmlns:dc="http://purl.org/dc/elements/1.1/"
   xmlns:cc="http://creativecommons.org/ns#"
   xmlns:rdf="http://www.w3.org/1999/02/22-rdf-syntax-ns#"
   xmlns:svg="http://www.w3.org/2000/svg"
   xmlns="http://www.w3.org/2000/svg"
   xmlns:sodipodi="http://sodipodi.sourceforge.net/DTD/sodipodi-0.dtd"
   xmlns:inkscape="http://www.inkscape.org/namespaces/inkscape"
   width="40"
   height="40"
   viewBox="0 0 40 40.000001"
   id="svg4875"
   version="1.1"
   inkscape:version="0.91 r13725"
   sodipodi:docname="flat-button-logo.svg">
  <defs
     id="defs4877" />
  <sodipodi:namedview
     id="base"
     pagecolor="#000000"
     bordercolor="#666666"
     borderopacity="1.0"
     inkscape:pageopacity="0"
     inkscape:pageshadow="2"
     inkscape:zoom="3.959798"
     inkscape:cx="63.768781"
     inkscape:cy="27.952773"
     inkscape:document-units="px"
     inkscape:current-layer="layer1"
     showgrid="false"
     inkscape:window-width="1920"
     inkscape:window-height="1017"
     inkscape:window-x="-8"
     inkscape:window-y="-8"
     inkscape:window-maximized="1"
     units="px" />
  <metadata
     id="metadata4880">
    <rdf:RDF>
      <cc:Work
         rdf:about="">
        <dc:format>image/svg+xml</dc:format>
        <dc:type
           rdf:resource="http://purl.org/dc/dcmitype/StillImage" />
        <dc:title></dc:title>
      </cc:Work>
    </rdf:RDF>
  </metadata>
  <g
     inkscape:label="Layer 1"
     inkscape:groupmode="layer"
     id="layer1"
     transform="translate(0,-1012.3622)">
    <path
       inkscape:connector-curvature="0"
       style="opacity:1;fill:#000000;fill-opacity:1;stroke:none;stroke-width:1.5;stroke-linecap:round;stroke-linejoin:miter;stroke-miterlimit:4;stroke-dasharray:none;stroke-dashoffset:13.5;stroke-opacity:1"
       d="m 0,1012.3622 0,30.861 0,5.9391 0,3.2 40,0 0,-3.2 0,-5.9391 0,-30.861 -40,0 z m 2.5273166,1.9032 7.1289334,0 c 0.1037163,0 0.1933,0.038 0.2687584,0.1138 0.075417,0.075 0.1132666,0.165 0.1132666,0.2687 l 0,2.1499 c 0,0.1038 -0.038,0.1934 -0.1132666,0.2688 -0.0755,0.076 -0.1650418,0.1125 -0.2687584,0.1125 l -4.0453416,0 0,1.0468 3.7625,0 c 0.1037337,0 0.1933,0.038 0.2687582,0.1138 0.075416,0.076 0.1132663,0.1651 0.1132663,0.2687 l 0,2.1362 c 0,0.1037 -0.038,0.1932 -0.1132663,0.2687 -0.0755,0.076 -0.165025,0.1138 -0.2687582,0.1138 l -3.7625,0 0,2.6586 c 0,0.1037 -0.038,0.1935 -0.1132663,0.2687 -0.075416,0.076 -0.1650416,0.1138 -0.2687582,0.1138 l -2.7015668,0 c -0.1037087,0 -0.193325,-0.038 -0.2687582,-0.1138 -0.075416,-0.075 -0.1124838,-0.165 -0.1124838,-0.2687 l 0,-9.1367 c 0,-0.1037 0.037166,-0.1933 0.1124838,-0.2688 0.075416,-0.076 0.16505,-0.1138 0.2687582,-0.1138 z m 9.1163914,0 2.828942,0 c 0.103712,0 0.1933,0.038 0.268759,0.1138 0.07541,0.075 0.113262,0.165 0.113262,0.2687 l 0,6.6195 3.917966,0 c 0.103713,0 0.193325,0.038 0.268759,0.1138 0.07541,0.076 0.113263,0.165 0.113263,0.2687 l 0,2.1352 c 0,0.1037 -0.038,0.1933 -0.113263,0.2687 -0.07541,0.076 -0.165041,0.1137 -0.268759,0.1137 l -7.128932,0 c -0.103709,0 -0.193325,-0.037 -0.268709,-0.1137 -0.07542,-0.075 -0.113291,-0.1651 -0.113291,-0.2687 l 0,-9.1368 c 0,-0.1037 0.038,-0.1934 0.113291,-0.2689 0.07542,-0.076 0.165,-0.1137 0.268709,-0.1137 z m 11.485176,0 3.069507,0 c 0.179175,0 0.320534,0.048 0.42425,0.1414 0.103713,0.094 0.174768,0.2024 0.212484,0.325 l 3.153925,9.0241 c 0.0095,0.029 0.01409,0.061 0.01409,0.099 0,0.085 -0.03316,0.1597 -0.09919,0.2259 -0.05659,0.056 -0.126866,0.085 -0.211716,0.085 l -2.617216,0 c -0.282868,0 -0.466659,-0.1175 -0.551551,-0.3541 l -0.339075,-0.9327 -3.041417,0 -0.339025,0.9327 c -0.08489,0.2358 -0.268683,0.3541 -0.551575,0.3541 l -2.617191,0 c -0.08486,0 -0.159759,-0.029 -0.2258,-0.085 -0.05659,-0.066 -0.08511,-0.1412 -0.08511,-0.2259 0,-0.038 0.005,-0.071 0.01409,-0.099 l 3.153875,-9.0241 c 0.03759,-0.1225 0.108812,-0.2307 0.212534,-0.325 0.103712,-0.094 0.245025,-0.1414 0.4242,-0.1414 z m 6.5414,0 8.289075,0 c 0.103737,0 0.193325,0.038 0.268757,0.1138 0.0755,0.075 0.112488,0.165 0.112488,0.2687 l 0,2.2774 c 0,0.1038 -0.03716,0.1933 -0.112488,0.2686 -0.07541,0.076 -0.165025,0.1125 -0.268757,0.1125 l -2.348434,0 0,6.4783 c 0,0.1037 -0.038,0.1932 -0.113275,0.2687 -0.0755,0.076 -0.164259,0.1138 -0.267975,0.1138 l -2.828909,0 c -0.103712,0 -0.193325,-0.038 -0.268757,-0.1138 -0.07541,-0.075 -0.113288,-0.165 -0.113288,-0.2687 l 0,-6.4783 -2.348432,0 c -0.103713,0 -0.193325,-0.036 -0.268718,-0.1125 -0.07541,-0.076 -0.112537,-0.165 -0.112537,-0.2686 l 0,-2.2774 c 0,-0.1037 0.03725,-0.1932 0.112537,-0.2687 0.07541,-0.076 0.165,-0.1138 0.268718,-0.1138 z m -5.014043,3.225 -0.791391,2.6305 1.597625,0 -0.806234,-2.6305 z m 4.570325,9.7975 c 0.56375,0 1.058643,0.092 1.48435,0.2767 0.425725,0.1841 0.759175,0.4542 1.000793,0.8108 0.247366,0.3568 0.380416,0.7827 0.397666,1.2774 0.01163,0.3221 0.01716,0.5781 0.01716,0.7679 0,0.19 -0.0059,0.4402 -0.01716,0.7507 -0.03441,0.7595 -0.308341,1.3374 -0.820341,1.7344 -0.512,0.3971 -1.19955,0.5955 -2.062468,0.5955 -0.862966,0 -1.550516,-0.1984 -2.062516,-0.5955 -0.512009,-0.397 -0.785009,-0.9749 -0.819534,-1.7344 -0.0059,-0.1553 -0.0089,-0.4056 -0.0089,-0.7507 0,-0.3509 0.0041,-0.6069 0.0089,-0.7679 0.01716,-0.4947 0.14665,-0.9206 0.388275,-1.2774 0.247368,-0.3566 0.58365,-0.6268 1.009375,-0.8108 0.425725,-0.1842 0.9206,-0.2767 1.4844,-0.2767 z m -26.8476826,0.086 2.8648416,0 c 0.8169084,0 1.4176584,0.1494 1.803125,0.4485 0.391175,0.2991 0.5875,0.7534 0.5875,1.3632 0,0.2475 -0.072584,0.4692 -0.2163834,0.6649 -0.1438416,0.1899 -0.3016416,0.3279 -0.4742416,0.4141 0.2301166,0.093 0.4228,0.2563 0.5781166,0.4922 0.1610668,0.2301 0.2414334,0.4832 0.2414334,0.7593 0,0.6387 -0.206925,1.1157 -0.621125,1.432 -0.4141916,0.3108 -1.0185916,0.4665 -1.8124834,0.4665 l -2.9507832,0 c -0.06325,0 -0.1180588,-0.024 -0.1640418,-0.07 -0.046,-0.046 -0.06875,-0.1012 -0.06875,-0.164 l 0,-5.5742 c 0,-0.064 0.022834,-0.1175 0.06875,-0.1641 0.046,-0.046 0.1007588,-0.069 0.1640418,-0.069 z m 6.26875,0 1.6906416,0 c 0.06325,0 0.118034,0.023 0.164042,0.069 0.046,0.046 0.0695,0.1013 0.0695,0.1642 l 0,3.4945 c 0,0.2186 0.05117,0.3857 0.154725,0.5007 0.109266,0.1088 0.270716,0.1641 0.483558,0.1641 0.212858,0 0.371475,-0.055 0.475,-0.1641 0.109309,-0.115 0.163275,-0.2821 0.163275,-0.5007 l 0,-3.4945 c 0,-0.064 0.02358,-0.1175 0.06958,-0.1642 0.046,-0.046 0.100766,-0.069 0.164041,-0.069 l 1.691409,0 c 0.06325,0 0.117262,0.023 0.163325,0.069 0.046,0.046 0.0695,0.1013 0.0695,0.1642 l 0,3.5297 c 0,0.788 -0.250293,1.3803 -0.750818,1.7773 -0.500466,0.3912 -1.179516,0.5867 -2.036707,0.5867 -0.862942,0 -1.5476586,-0.1955 -2.053892,-0.5867 -0.500517,-0.3969 -0.750792,-0.9892 -0.750792,-1.7772 l 0,-3.5297 c 0,-0.064 0.023584,-0.1175 0.0695,-0.1641 0.046,-0.046 0.1007838,-0.069 0.1640666,-0.069 z m 6.1617256,0 5.05705,0 c 0.06325,0 0.118037,0.023 0.164041,0.069 0.046,0.046 0.06875,0.1013 0.06875,0.1642 l 0,1.389 c 0,0.064 -0.02291,0.1175 -0.06875,0.1641 -0.046,0.046 -0.100763,0.069 -0.164041,0.069 l -1.432843,0 0,3.9517 c 0,0.064 -0.02284,0.1175 -0.06875,0.164 -0.046,0.046 -0.100787,0.07 -0.164075,0.07 l -1.72575,0 c -0.06334,0 -0.118037,-0.024 -0.164091,-0.07 -0.046,-0.046 -0.06875,-0.1013 -0.06875,-0.164 l 0,-3.9517 -1.432791,0 c -0.06325,0 -0.118038,-0.024 -0.164093,-0.069 -0.046,-0.046 -0.06866,-0.1013 -0.06866,-0.1641 l 0,-1.389 c 0,-0.064 0.02284,-0.1175 0.06866,-0.1642 0.04609,-0.046 0.100813,-0.069 0.164093,-0.069 z m 5.831232,0 5.05705,0 c 0.06325,0 0.118038,0.023 0.164093,0.069 0.046,0.046 0.06866,0.1013 0.06866,0.1642 l 0,1.389 c 0,0.064 -0.02284,0.1175 -0.06866,0.1641 -0.04609,0.046 -0.100813,0.069 -0.164093,0.069 l -1.432032,0 0,3.9517 c 0,0.064 -0.02359,0.1175 -0.0695,0.164 -0.046,0.046 -0.100813,0.07 -0.164093,0.07 l -1.725757,0 c -0.06325,0 -0.118038,-0.024 -0.164068,-0.07 -0.04609,-0.046 -0.06875,-0.1013 -0.06875,-0.164 l 0,-3.9517 -1.432816,0 c -0.06325,0 -0.117225,-0.024 -0.163284,-0.069 -0.046,-0.046 -0.0695,-0.1013 -0.0695,-0.1641 l 0,-1.389 c 0,-0.064 0.02359,-0.1175 0.0695,-0.1642 0.04609,-0.046 0.1,-0.069 0.163284,-0.069 z m 12.496884,0 1.363291,0 c 0.161084,0 0.279118,0.066 0.353909,0.1985 l 1.458625,2.3899 0,-2.3557 c 0,-0.064 0.02284,-0.1175 0.06866,-0.164 0.046,-0.046 0.100788,-0.069 0.164068,-0.069 l 1.561741,0 c 0.06325,0 0.118038,0.023 0.164017,0.069 0.04609,0.046 0.06875,0.1013 0.06875,0.164 l 0,5.5744 c 0,0.064 -0.02284,0.1175 -0.06875,0.164 -0.046,0.046 -0.100763,0.069 -0.164017,0.069 l -1.363291,0 c -0.09781,0 -0.172425,-0.021 -0.22425,-0.061 -0.05175,-0.04 -0.09514,-0.086 -0.129667,-0.1375 l -1.458617,-2.2009 0,2.1657 c 0,0.064 -0.02284,0.1175 -0.06875,0.164 -0.046,0.046 -0.100787,0.069 -0.164066,0.069 l -1.561734,0 c -0.06325,0 -0.118037,-0.024 -0.164066,-0.069 -0.046,-0.046 -0.06875,-0.1013 -0.06875,-0.164 l 0,-5.5743 c 0,-0.064 0.02284,-0.1175 0.06875,-0.164 0.046,-0.046 0.100812,-0.069 0.164066,-0.069 z m -28.8343584,1.4845 0,0.7851 0.7250084,0 c 0.115025,0 0.2010416,-0.038 0.2585834,-0.1125 0.06325,-0.081 0.095284,-0.1722 0.095284,-0.2759 0,-0.1037 -0.032,-0.1958 -0.095284,-0.2765 -0.057584,-0.081 -0.1435584,-0.12 -0.2585834,-0.12 l -0.7250084,0 z m 24.9234494,0.1112 c -0.18985,0 -0.342,0.057 -0.457032,0.1725 -0.115088,0.115 -0.175484,0.2908 -0.18125,0.5265 -0.0059,0.1554 -0.0089,0.3943 -0.0089,0.7164 0,0.3224 0.0041,0.5669 0.0089,0.7338 0.0059,0.2357 0.06334,0.4107 0.172641,0.5257 0.115037,0.115 0.270025,0.1726 0.465641,0.1726 0.195593,0 0.348484,-0.057 0.457793,-0.1726 0.115037,-0.115 0.175482,-0.29 0.18125,-0.5257 0.01163,-0.3338 0.01716,-0.5784 0.01716,-0.7338 0,-0.1666 -0.0059,-0.4056 -0.01716,-0.7164 -0.0059,-0.2357 -0.06625,-0.4113 -0.18125,-0.5265 -0.115038,-0.115 -0.26795,-0.1725 -0.457793,-0.1725 z m -24.9234494,2.114 0,0.846 0.8023168,0 c 0.1323082,0 0.230475,-0.044 0.2937582,-0.1297 0.069084,-0.086 0.1031163,-0.1836 0.1031163,-0.2929 0,-0.11 -0.03675,-0.2075 -0.1117163,-0.2937 -0.069,-0.086 -0.1643082,-0.1298 -0.2851582,-0.1298 l -0.8023168,0 z"
       id="path4864"
       inkscape:export-filename="C:\Users\martin.knopf\dev\website\public\fbassets\img\flat-button-logo-48x48.png"
       inkscape:export-xdpi="25.73"
       inkscape:export-ydpi="25.73" />
  </g>
</svg>
