<?xml version="1.0" encoding="utf-8"?>
<!-- Generator: Adobe Illustrator 17.0.1, SVG Export Plug-In . SVG Version: 6.00 Build 0)  -->
<!DOCTYPE svg PUBLIC "-//W3C//DTD SVG 1.1//EN" "http://www.w3.org/Graphics/SVG/1.1/DTD/svg11.dtd">
<svg version="1.1" id="Layer_1" xmlns:svg="http://www.w3.org/2000/svg"
	 xmlns="http://www.w3.org/2000/svg" xmlns:xlink="http://www.w3.org/1999/xlink" x="0px" y="0px" width="440.916px" height="126px"
	 viewBox="0 0 440.916 126" enable-background="new 0 0 440.916 126" xml:space="preserve">
<path id="Gears" fill="#FFFFFF" d="M218.675,42.25c0,8.97-7.28,16.25-16.25,16.25c-8.97,0-16.25-7.28-16.25-16.25
	S193.455,26,202.425,26C211.395,26,218.675,33.28,218.675,42.25z M202.344,12C185.683,12,172.151,25.436,172,42.062l-18.906,27.094
	c-0.77-0.08-1.553-0.125-2.344-0.125c-4.224,0-8.172,1.161-11.563,3.188L53.563,37.781c-2.238-10.159-11.316-17.812-22.125-17.812
	c-12.479,0-22.656,10.208-22.656,22.687c0,12.479,10.177,22.656,22.656,22.656c4.224,0,8.172-1.161,11.563-3.188L128.625,96.5
	c2.215,10.183,11.295,17.844,22.125,17.844c11.731,0,21.41-8.993,22.531-20.438l29.063-21.25c16.751,0,30.344-13.566,30.344-30.313
	C232.688,25.588,219.096,12,202.344,12z M202.344,22c11.224,0,20.344,9.12,20.344,20.344c0,11.224-9.12,20.313-20.344,20.313
	S182,53.568,182,42.344C182,31.12,191.12,22,202.344,22z M31.438,25.969c6.397,0,11.926,3.574,14.719,8.844L37.875,31.5v0.031
	c-6.672-2.396-14.084,0.865-16.75,7.5S21.526,53.176,28,56.062v0.031l7.031,2.813c-1.156,0.252-2.36,0.406-3.594,0.406
	c-9.233,0-16.656-7.423-16.656-16.656S22.205,25.969,31.438,25.969z M150.75,75.031c9.234,0,16.656,7.423,16.656,16.656
	c0,9.234-7.423,16.656-16.656,16.656c-6.423,0-11.968-3.581-14.75-8.875c2.739,1.105,5.483,2.199,8.219,3.313
	c6.789,2.728,14.521-0.553,17.25-7.344c2.729-6.789-0.585-14.491-7.375-17.219l-6.938-2.781
	C148.312,75.186,149.516,75.031,150.75,75.031z"/>
<path id="S" fill="#FFFFFF" d="M269.918,48.179c0,3.129-1.154,5.584-3.461,7.363c-2.308,1.782-5.242,2.672-8.804,2.672
	c-5.172,0-9.198-1.455-12.078-4.367l4.181-4.181c1.858,1.858,4.521,2.787,7.991,2.787c3.902,0,5.853-1.362,5.853-4.088
	c0-1.239-0.324-2.161-0.975-2.765s-1.642-0.999-2.974-1.185l-3.995-0.557c-5.854-0.806-8.78-3.887-8.78-9.245
	c0-3.005,1.037-5.429,3.112-7.271c2.074-1.843,4.879-2.765,8.408-2.765c4.461,0,8.021,1.285,10.687,3.855l-4.089,4.042
	c-1.579-1.517-3.84-2.276-6.783-2.276c-1.642,0-2.903,0.396-3.786,1.185c-0.883,0.789-1.323,1.789-1.323,2.996
	c0,0.961,0.349,1.766,1.045,2.416c0.696,0.651,1.695,1.069,2.996,1.255l3.902,0.557c2.817,0.404,4.925,1.255,6.318,2.556
	C269.067,42.775,269.918,45.112,269.918,48.179z"/>
<path id="T" fill="#FFFFFF" d="M302.235,30.618h-8.642v27.317h-6.457V30.618h-8.641v-5.761h23.739L302.235,30.618L302.235,30.618z"
	/>
<path id="E" fill="#FFFFFF" d="M334.273,57.936h-21.788V24.857h21.788v5.761h-15.331v7.759h13.056v5.761h-13.056v8.037h15.331
	V57.936z"/>
<path id="A" fill="#FFFFFF" d="M373.142,57.936h-6.736l-1.951-5.854h-11.754l-1.996,5.854h-6.737L356,24.857h5.064L373.142,57.936z
	 M362.737,46.646l-4.043-12.032l-4.181,12.032H362.737z"/>
<path id="M" fill="#FFFFFF" d="M412.195,57.936h-6.457v-19.28l-6.319,12.543h-4.366l-6.364-12.543v19.28h-6.458V24.857h6.339
	l8.607,17.887l8.562-17.887h6.457v33.079H412.195z"/>
<path id="SmallT" fill="#FFFFFF" d="M422.917,26.363h-2.232v7.056h-1.668v-7.056h-2.231v-1.488h6.132v1.488H422.917z"/>
<path id="SmallM" fill="#FFFFFF" d="M431.763,33.419h-1.668v-4.98l-1.633,3.24h-1.128l-1.644-3.24v4.98h-1.668v-8.544h1.638
	l2.223,4.62l2.212-4.62h1.668V33.419z"/>
</svg>
